<svg width="256" height="256" viewBox="0 0 256 256" fill="none" xmlns="http://www.w3.org/2000/svg">
<path d="M196 0H60C26.8629 0 0 26.8629 0 60V196C0 229.137 26.8629 256 60 256H196C229.137 256 256 229.137 256 196V60C256 26.8629 229.137 0 196 0Z" fill="#F8F8F8"/>
<path d="M93.4316 32.1296C83.5495 34.15 76.5222 37.1366 69.7144 42.2314C62.775 47.4579 58.1633 53.2555 53.2881 62.962C47.6662 74.1618 45.5141 94.4531 48.0615 112.68C49.1595 120.542 51.5313 132.049 52.2779 132.752C52.9806 133.455 54.8692 133.982 59.1735 134.641C60.7546 134.86 63.6973 135.387 65.7616 135.783C73.7991 137.232 86.7996 139.516 90.5768 140.131C92.7728 140.438 97.121 141.229 100.239 141.844C105.334 142.81 112.405 144.04 115.348 144.479C117.588 144.83 118.115 143.864 117.105 141.361C109.594 122.694 106.3 112.417 104.017 100.426C101.908 89.5779 101.733 78.1146 103.49 71.4826C105.598 63.7965 110.165 58.0428 116.71 54.8366C123.869 51.3669 129.535 50.3128 141.261 50.3128C149.167 50.3128 151.495 50.4885 162.958 52.0696C168.888 52.8602 172.313 52.5967 172.796 51.279C173.367 49.8736 171.83 48.4242 167.658 46.4917C153.559 39.9036 140.91 35.5993 128.129 33.008C116.797 30.7241 102.084 30.3288 93.4316 32.1296Z" fill="#5171B6"/>
<path d="M129.447 67.3101C126.943 67.7054 123.386 69.023 121.102 70.3407C117.456 72.4928 114.997 75.1719 113.24 78.8613C111.791 81.8479 111.659 82.5506 111.527 86.5913C111.22 95.3755 114.338 102.359 121.848 109.65C133.4 120.937 149.387 124.319 161.685 118.083C170.03 113.866 173.982 103.457 170.908 93.7943C167.526 83.0337 157.073 73.1955 144.555 68.9352C139.944 67.398 133.356 66.6513 129.447 67.3101Z" fill="#5171B6"/>
<path d="M177.057 73.8104C176.661 75.4354 177.145 77.5876 179.341 83.4729C182.459 91.8618 183.074 94.6288 183.337 101.437C183.645 108.683 183.206 110.967 180.746 116.194C176.266 125.505 169.019 132.313 157.776 137.759C151.802 140.658 147.015 142.327 139.109 144.259C128.832 146.763 117.193 147.817 105.29 147.334C90.9721 146.675 80.6507 145.094 65.3224 141.141C53.1124 137.979 51.9705 137.715 51.6191 138.066C51.3117 138.374 55.2645 149.178 63.9608 171.973C65.1906 175.223 67.8259 182.163 69.7584 187.346C71.6909 192.528 74.2383 199.248 75.4241 202.279C76.5661 205.309 78.6304 210.711 79.9919 214.357C83.286 223.009 83.813 224.327 84.4718 225.073C84.911 225.557 85.7016 225.513 89.3031 224.766C91.7187 224.239 96.3304 223.317 99.5806 222.702C102.831 222.043 107.311 221.033 109.463 220.462C111.659 219.891 113.899 219.32 114.514 219.144C117.939 218.31 131.731 213.742 136.035 212.073C164.364 200.917 185.138 184.974 197.172 165.166C198.929 162.267 202.355 155.415 203.19 153.043C207.626 141.097 208.24 137.715 207.933 128.052C207.318 109.342 199.632 93.399 183.25 76.7531C178.989 72.4488 177.584 71.79 177.057 73.8104Z" fill="#5171B6"/>
</svg>
